<svg width="20" height="32" viewBox="0 0 20 32" fill="none" xmlns="http://www.w3.org/2000/svg">
<path d="M9.74696 2.67805C12.5153 6.19634 13.9931 10.535 13.9395 14.987V16.0497L14.8529 16.6061C16.033 17.3212 16.9131 18.4305 17.3329 19.7317C16.9643 19.4601 16.5788 19.2116 16.1785 18.9878L13.7429 17.6188L13.3052 20.3819C13.2673 20.626 13.2165 20.8681 13.153 21.107H6.32822C6.22674 20.7945 6.14428 20.4819 6.06817 20.1568L5.51635 17.6563L3.27102 18.9066C2.8959 19.1165 2.53373 19.3483 2.18641 19.6005C2.61434 18.3143 3.4761 17.2112 4.62837 16.4748L5.49732 15.9184V14.9307C5.513 10.4968 7.00857 6.19114 9.7533 2.67805H9.74696ZM9.7533 0.0774841C9.61095 0.0778302 9.47353 0.128897 9.36639 0.221265L9.30931 0.271276C5.65181 4.30294 3.62084 9.51625 3.60084 14.9244C2.04877 15.9169 0.899903 17.4153 0.354997 19.1579C-0.189909 20.9005 -0.0961984 22.7764 0.619753 24.4577C1.37397 22.816 2.63477 21.4509 4.22243 20.5569C4.38166 21.2367 4.59371 21.9034 4.8567 22.5511C4.89006 22.6756 4.96399 22.7859 5.06713 22.8649C5.17026 22.944 5.2969 22.9875 5.42755 22.9887H14.2313C14.4089 22.9887 14.5865 22.8199 14.6753 22.5573C14.932 21.9415 15.1109 21.297 15.2081 20.6382C16.7988 21.5284 18.0606 22.8947 18.8107 24.539C19.5699 22.8659 19.6874 20.9782 19.1415 19.2262C18.5956 17.4741 17.4234 15.9768 15.8423 15.012C15.9051 9.57187 13.8848 4.30839 10.1846 0.271276C10.1295 0.210557 10.0621 0.161928 9.98668 0.128544C9.91128 0.095159 9.82961 0.0777632 9.74696 0.0774841L9.7533 0.0774841Z" fill="#4EA8DE"/>
<path d="M9.74692 14.4056C9.25974 14.4056 8.78347 14.2634 8.37814 13.997C7.97282 13.7306 7.65657 13.3519 7.46928 12.9087C7.28199 12.4654 7.23203 11.9774 7.3257 11.5062C7.41937 11.035 7.65248 10.6017 7.99564 10.2609C8.3388 9.92007 8.77665 9.687 9.25401 9.59106C9.73136 9.49512 10.2268 9.54061 10.678 9.72179C11.1292 9.90298 11.5158 10.2117 11.7892 10.6092C12.0626 11.0066 12.2105 11.4749 12.2142 11.955C12.2218 12.2662 12.1671 12.5758 12.0533 12.8661C11.9394 13.1564 11.7687 13.4218 11.5507 13.647C11.3328 13.8723 11.072 14.053 10.7831 14.1789C10.4943 14.3047 10.1831 14.3733 9.86743 14.3806C9.82751 14.3869 9.78683 14.3869 9.74692 14.3806V14.4056Z" fill="#4EA8DE"/>
<path d="M13.1784 24.5453C13.0197 24.5403 12.8615 24.5665 12.7133 24.6226C12.565 24.6786 12.4296 24.7633 12.315 24.8716C12.2004 24.9799 12.1089 25.1097 12.0458 25.2533C11.9828 25.3969 11.9495 25.5515 11.9479 25.708V29.3963C11.9479 29.718 12.0775 30.0264 12.3083 30.2539C12.539 30.4813 12.852 30.6091 13.1784 30.6091C13.5047 30.6091 13.8177 30.4813 14.0485 30.2539C14.2792 30.0264 14.4089 29.718 14.4089 29.3963V25.758C14.4139 25.6021 14.3875 25.4468 14.331 25.3011C14.2745 25.1554 14.1892 25.0222 14.08 24.9093C13.9708 24.7964 13.8399 24.7061 13.6949 24.6436C13.5499 24.5811 13.3937 24.5477 13.2355 24.5453H13.1784Z" fill="#5E60CE"/>
<path d="M6.32824 24.5453C6.16684 24.5369 6.00537 24.5605 5.85344 24.6149C5.70152 24.6692 5.56223 24.7531 5.44388 24.8616C5.32552 24.9701 5.23052 25.1009 5.16452 25.2463C5.09852 25.3917 5.06287 25.5488 5.05969 25.708V29.3963C5.05969 29.718 5.18933 30.0264 5.42009 30.2539C5.65086 30.4813 5.96384 30.6091 6.29018 30.6091C6.61653 30.6091 6.92951 30.4813 7.16027 30.2539C7.39104 30.0264 7.52068 29.718 7.52068 29.3963V25.758C7.52575 25.6021 7.49928 25.4468 7.44282 25.3011C7.38635 25.1554 7.30103 25.0222 7.19181 24.9093C7.08259 24.7964 6.95167 24.7061 6.80667 24.6436C6.66168 24.5811 6.50551 24.5477 6.34727 24.5453H6.32824Z" fill="#5E60CE"/>
<path d="M9.6581 24.5453C9.49984 24.5419 9.34246 24.5694 9.19495 24.626C9.04745 24.6827 8.91272 24.7674 8.79845 24.8754C8.68418 24.9834 8.59261 25.1125 8.52898 25.2553C8.46536 25.3982 8.43091 25.552 8.42761 25.708V30.7904C8.42761 31.112 8.55725 31.4205 8.78801 31.6479C9.01878 31.8754 9.33176 32.0031 9.6581 32.0031C9.98445 32.0031 10.2974 31.8754 10.5282 31.6479C10.759 31.4205 10.8886 31.112 10.8886 30.7904V25.7893C10.8937 25.6334 10.8672 25.4781 10.8107 25.3323C10.7543 25.1866 10.6689 25.0535 10.5597 24.9406C10.4505 24.8277 10.3196 24.7374 10.1746 24.6749C10.0296 24.6124 9.87343 24.5789 9.71519 24.5765L9.6581 24.5453Z" fill="#5E60CE"/>
</svg>
